<?xml version="1.0" encoding="UTF-8" standalone="no"?>
<svg
   xmlns:dc="http://purl.org/dc/elements/1.1/"
   xmlns:cc="http://creativecommons.org/ns#"
   xmlns:rdf="http://www.w3.org/1999/02/22-rdf-syntax-ns#"
   xmlns:svg="http://www.w3.org/2000/svg"
   xmlns="http://www.w3.org/2000/svg"
   xmlns:sodipodi="http://sodipodi.sourceforge.net/DTD/sodipodi-0.dtd"
   xmlns:inkscape="http://www.inkscape.org/namespaces/inkscape"
   version="1.1"
   id="Layer_2"
   x="0px"
   y="0px"
   viewBox="0 0 134 38"
   style="enable-background:new 0 0 134 38;"
   xml:space="preserve"
   sodipodi:docname="logo.svg"
   inkscape:version="1.0.2-2 (e86c870879, 2021-01-15)"><metadata
   id="metadata57"><rdf:RDF><cc:Work
       rdf:about=""><dc:format>image/svg+xml</dc:format><dc:type
         rdf:resource="http://purl.org/dc/dcmitype/StillImage" /></cc:Work></rdf:RDF></metadata><defs
   id="defs55" /><sodipodi:namedview
   pagecolor="#ffffff"
   bordercolor="#666666"
   borderopacity="1"
   objecttolerance="10"
   gridtolerance="10"
   guidetolerance="10"
   inkscape:pageopacity="0"
   inkscape:pageshadow="2"
   inkscape:window-width="1366"
   inkscape:window-height="705"
   id="namedview53"
   showgrid="false"
   inkscape:zoom="7.5895522"
   inkscape:cx="52.888921"
   inkscape:cy="19"
   inkscape:window-x="-8"
   inkscape:window-y="-8"
   inkscape:window-maximized="1"
   inkscape:current-layer="Layer_2" />
<style
   type="text/css"
   id="style2">
	.st0{fill:#14BF98;}
	.st1{fill:#FFFFFF;}
</style>
<title
   id="title4">logo</title>























<text
   xml:space="preserve"
   style="font-style:normal;font-weight:normal;font-size:14.9212px;line-height:1.25;font-family:sans-serif;fill:#2a7fff;fill-opacity:1;stroke:none;stroke-width:1.01735;"
   x="47.01965"
   y="19.186838"
   id="text61"
   transform="matrix(0.65535706,-0.00892605,0,1.5258857,0,0)"><tspan
     sodipodi:role="line"
     id="tspan59"
     x="47.01965"
     y="19.186838"
     style="font-style:normal;font-variant:normal;font-weight:normal;font-stretch:normal;font-size:14.9212px;font-family:'Bauhaus 93';-inkscape-font-specification:'Bauhaus 93, ';fill:#2a7fff;stroke-width:1.01735;">officialticketcenter.mx</tspan></text><path
   style="fill:#2a7fff;stroke-width:0.0579597"
   d="m 13.830973,33.552434 c -0.136991,-0.02888 -0.377971,-0.05518 -0.535511,-0.05842 -0.157539,-0.0033 -0.286435,-0.03205 -0.286435,-0.06399 0,-0.03195 -0.05146,-0.04477 -0.114369,-0.02849 -0.185712,0.04806 -1.496958,-0.412945 -2.20203,-0.774184 -0.509604,-0.261092 -1.3200958,-0.768799 -1.3200958,-0.826932 0,-0.02374 -0.03015,-0.04316 -0.067,-0.04316 -0.03684,0 -0.199366,-0.11217 -0.361159,-0.249265 -0.161791,-0.137093 -0.338999,-0.286296 -0.393795,-0.331559 -0.0548,-0.04526 -0.189297,-0.174696 -0.298889,-0.287628 -0.10959,-0.112931 -0.327886,-0.319148 -0.485097,-0.458258 -0.273059,-0.241625 -1.930928,-2.417794 -1.930928,-2.534597 0,-0.03085 -0.134931,-0.294304 -0.299845,-0.58547 -0.164916,-0.291168 -0.288464,-0.569547 -0.274553,-0.618621 0.01392,-0.04908 0.0065,-0.07346 -0.01661,-0.05417 -0.08127,0.068 -0.662951,-1.326867 -0.925644,-2.219717 -0.07639,-0.259629 -0.162455,-0.540286 -0.191261,-0.623682 -0.0288,-0.0834 -0.03961,-0.168909 -0.02401,-0.190029 0.0156,-0.02112 0.299845,-0.003 0.631654,0.04037 0.331808,0.04332 0.687086,0.08598 0.789505,0.09478 0.102415,0.0088 0.23192,0.02094 0.287782,0.02697 0.06988,0.0076 0.147177,0.13192 0.247771,0.398709 0.08042,0.213267 0.253272,0.625345 0.384131,0.915729 0.130858,0.290384 0.237923,0.555913 0.237923,0.590065 0,0.03415 0.02242,0.0621 0.04982,0.0621 0.0274,0 0.04982,0.04552 0.04982,0.101149 0,0.05563 0.0181,0.10115 0.04021,0.10115 0.02211,0 0.145565,0.194247 0.274336,0.431659 0.337879,0.622944 1.02378,1.553036 1.639698,2.223458 0.293983,0.319997 0.54672,0.581814 0.561638,0.581814 0.01492,0 0.16668,0.116631 0.337247,0.259181 0.5388318,0.450322 0.7559128,0.60412 1.1575548,0.820107 0.215038,0.115637 0.437378,0.244134 0.49409,0.285545 0.08397,0.06132 0.327279,0.119787 0.327279,0.07865 0,-0.0804 -0.252474,-0.713306 -0.344296,-0.863081 -0.03654,-0.05959 -0.0516,-0.108346 -0.03348,-0.108346 0.01812,0 -0.01276,-0.06641 -0.06862,-0.147588 -0.11108,-0.161405 -0.135789,-0.432656 -0.04322,-0.474427 0.11535,-0.05205 0.130256,-0.580281 0.02483,-0.879771 C 11.073154,27.925819 10.969061,27.832961 10.49336,27.557215 9.8918272,27.208528 9.6793022,27.02674 9.3403492,26.57096 c -0.355823,-0.478463 -0.565605,-0.913338 -0.565605,-1.172489 0,-0.07566 -0.01854,-0.137558 -0.0412,-0.137558 -0.04603,0 -0.158055,-0.749176 -0.158055,-1.057005 0,-0.390585 0.05486,-0.41951 0.821946,-0.433304 0.383576,-0.0069 0.8319088,-0.03927 0.9962988,-0.07194 0.16439,-0.03267 0.612723,-0.103344 0.996299,-0.157042 0.383575,-0.0537 0.96641,-0.157703 1.295188,-0.231112 1.184796,-0.264534 1.74916,-0.402515 2.067321,-0.505431 0.178088,-0.05761 0.376813,-0.105188 0.441609,-0.105742 0.113796,-9.64e-4 0.11507,0.0047 0.03737,0.16522 -0.04425,0.09142 -0.08046,0.205528 -0.08046,0.253575 0,0.04804 -0.06148,0.177114 -0.136624,0.28682 -0.07514,0.109705 -0.170415,0.283099 -0.211714,0.38532 -0.04131,0.102226 -0.126641,0.270096 -0.189646,0.373055 -0.06301,0.102961 -0.271371,0.475486 -0.463031,0.827839 -0.19166,0.352353 -0.386693,0.705476 -0.433406,0.784717 -0.114063,0.193486 -0.126795,0.258072 -0.149314,0.757449 -0.02624,0.581865 0.08084,0.937684 0.415135,1.379527 0.29369,0.388168 0.398266,0.661173 0.324621,0.847455 -0.02582,0.06533 -0.195603,0.313693 -0.377287,0.551932 -0.432848,0.567592 -0.698676,1.269599 -0.649354,1.714844 l 0.03263,0.294503 1.173097,0.0061 c 1.208573,0.0063 1.354532,-0.01425 2.408422,-0.338997 0.431692,-0.133022 1.548922,-0.604961 1.594079,-0.673368 0.04424,-0.06701 0.449619,-0.333906 0.507161,-0.333906 0.03066,0 0.230486,-0.151731 0.444044,-0.33718 0.213557,-0.185449 0.410074,-0.33718 0.436706,-0.33718 0.02664,0 0.0559,-0.02332 0.06502,-0.05184 0.0092,-0.02851 0.173521,-0.200462 0.365309,-0.382113 0.191787,-0.181651 0.358674,-0.34125 0.370856,-0.354665 0.01224,-0.01341 0.05034,-0.349764 0.08479,-0.74744 0.07767,-0.896586 0.08163,-1.979161 0.0097,-2.644976 -0.03006,-0.278174 -0.05933,-0.581636 -0.06504,-0.67436 -0.0057,-0.09272 -0.02339,-0.21411 -0.03928,-0.269745 -0.01589,-0.05563 -0.04306,-0.192193 -0.06038,-0.303463 -0.05945,-0.381974 -0.181948,-0.748021 -0.277299,-0.828633 -0.0525,-0.04438 -0.292182,-0.100063 -0.532632,-0.123735 -0.331323,-0.03262 -0.491464,-0.08375 -0.66135,-0.211164 -0.379742,-0.284801 -0.714772,-1.019222 -0.589163,-1.291502 0.05597,-0.121321 0.2863,-0.275654 0.713701,-0.478212 0.535636,-0.253855 1.427919,-0.75406 2.019736,-1.132246 0.341251,-0.218065 0.710122,-0.453578 0.819716,-0.523361 0.109589,-0.06978 0.350678,-0.244461 0.535746,-0.388174 0.185068,-0.143711 0.365118,-0.266982 0.40011,-0.273936 0.035,-0.0069 0.130158,-0.07584 0.211478,-0.153095 0.08132,-0.07725 0.23752,-0.196244 0.347114,-0.264434 0.109589,-0.06819 0.210468,-0.141352 0.224167,-0.162585 0.0137,-0.02124 0.08095,-0.07624 0.149446,-0.122244 0.06849,-0.046 0.191786,-0.143686 0.273981,-0.217078 0.08219,-0.07339 0.205487,-0.171076 0.273982,-0.217078 0.0685,-0.046 0.135747,-0.102045 0.149446,-0.124533 0.0137,-0.02249 0.181824,-0.157421 0.373611,-0.299839 0.191788,-0.14242 0.434218,-0.34875 0.538734,-0.458512 0.146469,-0.153821 0.203565,-0.181251 0.249076,-0.11966 0.10546,0.14273 0.06957,3.78639 -0.04258,4.321681 -0.0116,0.05563 -0.03283,0.222539 -0.04705,0.370898 -0.01422,0.14836 -0.06123,0.436649 -0.104454,0.640643 -0.04323,0.203994 -0.09665,0.47711 -0.118753,0.606925 -0.07021,0.412584 -0.256662,1.1625 -0.427561,1.719619 -0.220602,0.719147 -0.709704,2.00433 -0.798417,2.097952 -0.03902,0.04118 -0.07095,0.124631 -0.07095,0.18545 0,0.06082 -0.01986,0.110578 -0.04413,0.110578 -0.02428,0 -0.08181,0.107443 -0.127834,0.238762 -0.04603,0.131318 -0.151783,0.343742 -0.235003,0.472052 -0.08322,0.12831 -0.132175,0.233755 -0.108786,0.234323 0.02339,5.4e-4 0.0201,0.02332 -0.0073,0.05058 -0.0274,0.02725 -0.139019,0.201275 -0.248047,0.386724 -0.259887,0.442054 -0.222552,0.387091 -0.820309,1.207608 -0.286216,0.392878 -0.536628,0.714321 -0.556473,0.714321 -0.01984,0 -0.125456,0.113798 -0.234696,0.252886 -0.268267,0.341569 -0.35724,0.435877 -0.35724,0.378661 0,-0.02647 -0.05604,0.02314 -0.124539,0.11025 -0.06849,0.08711 -0.124539,0.138196 -0.124539,0.113523 0,-0.02468 -0.06164,0.04077 -0.136991,0.145411 -0.160566,0.223015 -0.934189,0.847313 -1.606532,1.296442 -0.521625,0.348447 -1.755848,0.939758 -1.961526,0.939758 -0.07189,0 -0.130701,0.03035 -0.130701,0.06744 0,0.03709 -0.05423,0.06744 -0.120512,0.06744 -0.06628,0 -0.251221,0.04414 -0.410973,0.09809 -0.713256,0.240867 -2.388429,0.371325 -3.030281,0.235989 z M 5.1631742,22.936248 c -0.04139,-0.02501 -0.618984,-0.114476 -1.29519,-0.200613 -0.233138,-0.0297 -0.794266,-0.196614 -0.821945,-0.244502 -0.0137,-0.0237 -0.111514,-0.06466 -0.217355,-0.09103 -0.173765,-0.04328 -0.678976,-0.329873 -0.803852,-0.456004 -0.235565,-0.237931 -0.423427,-0.489831 -0.423427,-0.567762 0,-0.05179 -0.02322,-0.09417 -0.05159,-0.09417 -0.107818,0 -0.26165,-0.629439 -0.252859,-1.034637 0.0088,-0.403368 0.164185,-0.937752 0.325466,-1.11895 0.06981,-0.07843 0.07861,-0.05069 0.07861,0.248027 0,0.39841 0.119033,0.644524 0.384298,0.794563 0.367289,0.207749 2.24079,0.06137 3.974509,-0.310524 0.16439,-0.03526 0.444599,-0.0826 0.622687,-0.105198 0.178089,-0.0226 0.335005,-0.06151 0.348704,-0.08648 0.0137,-0.02497 0.181826,-0.08488 0.373613,-0.133132 0.191788,-0.04826 0.483204,-0.133178 0.647594,-0.188719 0.164389,-0.05553 0.399764,-0.126181 0.523057,-0.156983 0.12329,-0.0308 0.470751,-0.15166 0.772131,-0.268575 0.301381,-0.116916 0.592799,-0.228709 0.647595,-0.248431 0.4462598,-0.160608 1.7042268,-0.728985 1.9925968,-0.9003 0.502034,-0.298247 1.333542,-0.739128 1.394007,-0.739128 0.04155,0 0.07554,-0.03035 0.07554,-0.06744 0,-0.03709 0.02802,-0.06759 0.06227,-0.06777 0.05985,-3.37e-4 1.140405,-0.724353 1.656348,-1.109852 0.13699,-0.102354 0.393904,-0.290026 0.570919,-0.417043 0.177013,-0.127016 0.358113,-0.275373 0.402441,-0.329681 0.04433,-0.05431 0.09339,-0.09874 0.109029,-0.09874 0.01564,0 0.137166,-0.09887 0.27006,-0.21972 0.386826,-0.351755 0.885935,-0.771914 0.927475,-0.780765 0.02104,-0.0045 0.177957,-0.161315 0.348705,-0.348517 0.170748,-0.187201 0.337526,-0.369932 0.370617,-0.406068 0.03308,-0.03614 0.08353,-0.0657 0.112087,-0.0657 0.02856,0 0.05192,-0.02828 0.05192,-0.06284 0,-0.03457 0.06886,-0.129226 0.153034,-0.21036 l 0.153033,-0.147516 0.332663,0.188103 c 0.958905,0.542211 1.597714,0.970056 1.651497,1.106096 0.02332,0.05901 0.03876,0.758348 0.0343,1.55409 l -0.0082,1.446805 -0.647595,0.457432 c -0.356177,0.251587 -0.770886,0.534119 -0.921577,0.62785 -0.150689,0.09373 -0.307607,0.1997 -0.348704,0.235489 -0.0411,0.03579 -0.579099,0.40064 -1.195558,0.810784 -0.61646,0.410141 -1.277754,0.854521 -1.469542,0.987511 -0.191787,0.132988 -0.35384,0.23878 -0.360115,0.235093 -0.0062,-0.0037 -0.140775,0.0702 -0.29889,0.164176 -0.158112,0.09399 -0.332311,0.195784 -0.387109,0.226221 -0.0548,0.03044 -0.200505,0.114887 -0.323796,0.187668 -0.12329,0.07278 -0.313835,0.168959 -0.423427,0.213728 -0.10959,0.04477 -0.244094,0.108852 -0.29889,0.142407 -0.222692,0.13637 -1.161471,0.554675 -1.420661,0.633025 -0.224378,0.06783 -0.766979,0.252294 -1.023786,0.348056 -0.138924,0.05181 -0.363091,0.112291 -0.49815,0.134417 -0.135058,0.02213 -0.31281,0.06614 -0.395004,0.0978 -0.173154,0.06671 -0.338591,0.101352 -0.9791268,0.205013 -0.256029,0.04144 -0.611216,0.103089 -0.789304,0.137008 -0.335991,0.064 -3.623406,0.148835 -3.711213,0.09578 z m -1.750559,-4.728829 c 0.0151,-0.701179 0.04996,-1.502467 0.07746,-1.780641 0.0275,-0.278173 0.06348,-0.642328 0.07993,-0.809232 0.02671,-0.270793 0.03886,-0.352851 0.06989,-0.472052 0.01494,-0.05738 0.105346,-0.564109 0.132336,-0.741797 0.07429,-0.488972 0.740209,-2.792701 0.874952,-3.026858 0.0509,-0.08845 0.09255,-0.184905 0.09255,-0.214334 0,-0.07703 0.343026,-0.857117 0.521071,-1.1849913 0.08329,-0.153376 0.183535,-0.341413 0.222774,-0.417863 0.03924,-0.07645 0.09314,-0.120762 0.119785,-0.09848 0.02664,0.02229 0.03493,0.01093 0.01842,-0.02523 -0.04552,-0.09972 0.107232,-0.395947 0.568004,-1.101491 0.369654,-0.566019 0.548203,-0.807881 1.165239,-1.578442 0.08219,-0.102642 0.239112,-0.264295 0.348705,-0.359221 0.10959,-0.09493 0.271697,-0.257768 0.360233,-0.361871 0.380468,-0.447373 1.123128,-1.030751 2.0059778,-1.575745 0.586653,-0.36215 1.747874,-0.912682 1.925093,-0.912682 0.06374,0 0.211482,-0.03036 0.328317,-0.06747 0.84725,-0.269087 0.982425,-0.288165 2.180119,-0.307684 1.105086,-0.01801 1.281689,-0.0049 1.86806,0.139235 1.092907,0.268546 1.775637,0.509383 2.291487,0.808334 0.08219,0.04764 0.306363,0.171491 0.498151,0.275237 0.191786,0.10375 0.382329,0.222634 0.423426,0.264193 0.0411,0.04157 0.220432,0.172804 0.398519,0.29165 0.310597,0.207276 1.093965,0.855313 1.145744,0.947809 0.0137,0.02448 0.148199,0.158712 0.29889,0.298311 0.150691,0.139599 0.404226,0.412305 0.563415,0.606014 l 0.289433,0.352199 -0.326779,0.472052 c -0.179729,0.259628 -0.326786,0.48088 -0.326795,0.491668 -4.5e-5,0.06109 -1.716131,2.3069283 -1.762764,2.3069283 -0.03092,0 -0.11521,-0.132199 -0.1873,-0.293775 -0.111374,-0.2496163 -0.566993,-0.7503603 -0.6611,-0.7265783 -0.09356,0.02364 -0.685642,-0.46901 -0.880185,-0.732369 -0.400879,-0.542681 -0.692503,-1.600147 -0.625247,-2.267213 0.01708,-0.169336 0.0045,-0.31994 -0.03241,-0.386961 -0.06393,-0.116205 -0.657061,-0.349782 -1.156295,-0.455354 -1.039615,-0.219844 -2.42421,-0.22971 -3.16676,-0.02257 -0.492967,0.137519 -0.743713,0.229288 -0.743713,0.272184 0,0.01939 0.13122,0.207887 0.291601,0.418876 0.372102,0.48952 0.476267,0.779151 0.434489,1.208097 -0.08058,0.827335 -0.08566,1.001463 -0.03579,1.226811 0.0294,0.132844 0.04863,0.261851 0.04273,0.286681 -0.0059,0.02483 0.03554,0.115867 0.09209,0.202307 0.05655,0.08645 0.155354,0.308895 0.21957,0.494345 0.06422,0.185449 0.135639,0.3898743 0.158716,0.4542783 0.122462,0.341764 -0.04008,0.927942 -0.308241,1.111633 -0.06767,0.04635 -0.09598,0.08473 -0.06291,0.08527 0.03307,5.4e-4 -0.05602,0.145139 -0.197997,0.321316 -0.141973,0.176176 -0.289866,0.360345 -0.328653,0.409261 -0.03878,0.04892 -0.123417,0.135859 -0.188069,0.193206 -0.06465,0.05735 -0.117682,0.138707 -0.11786,0.180803 -1.5e-4,0.0421 -0.03198,0.158715 -0.07068,0.259151 -0.03871,0.100436 -0.09817,0.350793 -0.132157,0.556348 -0.03398,0.205554 -0.07503,0.373741 -0.09121,0.37375 -0.01619,7e-6 -0.02846,0.113806 -0.02726,0.252885 0.0048,0.569532 -0.26524,1.693748 -0.482724,2.008962 -0.160289,0.232324 -0.468803,0.368145 -0.836223,0.368145 -0.517913,0 -0.74484,0.445045 -0.627675,1.230992 0.03607,0.241963 0.03033,0.257299 -0.129741,0.346516 -0.09212,0.05135 -0.3851328,0.176391 -0.6511508,0.277887 l -0.483667,0.184539 -0.612261,-0.491958 c -0.336743,-0.270577 -0.696323,-0.550656 -0.799067,-0.622398 -0.102746,-0.07174 -0.186806,-0.157208 -0.186806,-0.189924 0,-0.03271 -0.07649,-0.102748 -0.169985,-0.155632 -0.09349,-0.05288 -0.21192,-0.151914 -0.263172,-0.220073 -0.05126,-0.06816 -0.171869,-0.204128 -0.268038,-0.302158 -0.297634,-0.303392 -0.551227,-0.679718 -0.772646,-1.146584 -0.246674,-0.520117 -0.297085,-0.577496 -0.362339,-0.412436 -0.05213,0.131856 -0.194197,0.970943 -0.236386,1.39614 -0.0145,0.146196 -0.04643,0.316533 -0.07094,0.378526 -0.02451,0.06199 -0.05102,0.692948 -0.0589,1.402122 -0.01185,1.069285 -0.02711,1.296743 -0.08907,1.332385 -0.07057,0.04059 -0.396094,0.09387 -1.23771,0.202596 l -0.36595,0.04728 z M 27.12014,17.133309 c -0.115452,-0.10947 -0.18259,-0.324498 -0.262711,-0.841403 -0.03162,-0.203993 -0.09873,-0.628841 -0.149143,-0.944105 -0.05042,-0.315263 -0.117912,-0.755284 -0.150002,-0.977823 C 26.526194,14.14744 26.457118,13.7357 26.404776,13.455 c -0.05234,-0.2807 -0.09516,-0.606922 -0.09516,-0.724939 0,-0.118015 -0.02242,-0.214574 -0.04982,-0.214574 -0.0274,0 -0.04982,-0.0776 -0.04982,-0.172446 0,-0.09484 -0.02112,-0.299683 -0.04694,-0.455193 -0.02582,-0.155512 -0.05935,-0.363392 -0.07452,-0.461957 -0.02218,-0.144135 -0.04955,-0.172686 -0.139867,-0.145881 -0.09018,0.02677 -0.09757,0.01909 -0.03757,-0.03892 0.0411,-0.03974 0.04945,-0.07272 0.01856,-0.07329 -0.03089,-5.39e-4 -0.0846,0.04535 -0.119352,0.102034 -0.07032,0.114702 -1.26419,0.908474 -1.366386,0.908474 -0.03569,0 -0.09207,0.04435 -0.125291,0.09854 -0.03323,0.05419 -0.108825,0.118818 -0.167998,0.143599 -0.05917,0.02478 -0.257211,0.144569 -0.440087,0.266192 -0.182876,0.121625 -0.342203,0.208002 -0.35406,0.191951 -0.01185,-0.01605 -0.04992,0.01707 -0.08457,0.0736 -0.03465,0.05654 -0.08652,0.10278 -0.115249,0.10278 -0.02873,0 -0.194108,0.09356 -0.367512,0.207925 -0.237267,0.156477 -0.316509,0.24408 -0.320244,0.354039 -0.02215,0.651908 -0.08678,1.856809 -0.105244,1.962215 -0.04737,0.270347 -0.688822,0.83888 -0.779037,0.690481 -0.02638,-0.04339 -0.062,-0.579596 -0.07918,-1.191579 -0.01718,-0.611981 -0.04728,-1.248115 -0.06691,-1.413629 -0.03344,-0.282052 -0.05368,-0.31379 -0.322541,-0.505771 -0.16258,-0.116093 -0.276983,-0.239866 -0.264065,-0.285695 0.01383,-0.04905 -0.0064,-0.06574 -0.05116,-0.04245 -0.07371,0.03829 -0.633899,-0.327966 -0.758942,-0.496203 -0.03621,-0.04872 -0.10346,-0.08872 -0.149446,-0.0889 -0.04599,-2.03e-4 -0.146885,-0.06887 -0.224213,-0.152647 -0.137439,-0.148891 -0.138557,-0.155486 -0.04982,-0.293784 0.04993,-0.07782 0.207921,-0.224336 0.351092,-0.325612 0.216726,-0.153308 0.295963,-0.176199 0.473242,-0.136719 0.195797,0.0436 0.536658,0.213165 0.747766,0.371973 0.04758,0.03579 0.120435,0.06507 0.161898,0.06507 0.04147,0 0.0754,0.03035 0.0754,0.06744 0,0.03709 0.04035,0.06744 0.08967,0.06744 0.04932,0 0.110966,0.02854 0.136992,0.0634 0.02602,0.03487 0.107984,0.07813 0.182117,0.09615 0.14721,0.03576 0.278113,-0.0835 0.785448,-0.715618 0.156407,-0.194876 0.349588,-0.427324 0.429292,-0.516553 0.0797,-0.08923 0.246585,-0.286479 0.370847,-0.438335 0.124259,-0.151855 0.345198,-0.4126583 0.490966,-0.5795633 0.145767,-0.166904 0.371464,-0.432433 0.501549,-0.590065 0.130086,-0.157632 0.263538,-0.286603 0.296561,-0.286603 0.03316,0 0.04392,-0.03533 0.02402,-0.07889 -0.02374,-0.05201 -0.0096,-0.06513 0.04174,-0.0385 0.05433,0.02823 0.0846,-0.008 0.100439,-0.120221 0.01663,-0.11779 -0.02745,-0.233388 -0.165326,-0.433551 -0.103396,-0.150115 -0.206572,-0.27296 -0.229262,-0.27299 -0.0227,-2.9e-5 -0.123825,-0.09866 -0.224745,-0.219166 -0.300434,-0.35877 -0.365274,-0.428007 -0.441404,-0.471345 -0.03989,-0.02271 -0.204522,-0.187666 -0.365861,-0.366578 -0.16134,-0.178913 -0.328437,-0.355643 -0.37133,-0.392733 -0.0429,-0.03709 -0.135053,-0.134782 -0.204805,-0.217094 -0.06975,-0.08231 -0.240807,-0.279562 -0.380123,-0.438334 -0.139316,-0.158772 -0.313046,-0.356755 -0.386065,-0.439962 -0.249341,-0.284126 -0.09659,-0.904981 0.243924,-0.99146 0.195319,-0.0496 0.619611,0.01652 0.619611,0.09657 0,0.02816 0.10648,0.07024 0.236622,0.0935 0.461091,0.08243 0.609192,0.124894 0.589094,0.168915 -0.01122,0.02451 0.06925,0.04773 0.178745,0.05161 0.1095,0.0038 0.247725,0.03806 0.307174,0.07594 0.05945,0.03788 0.242593,0.105582 0.406981,0.150435 0.164389,0.04486 0.343723,0.106371 0.398519,0.13669 0.0548,0.03032 0.191427,0.07227 0.303625,0.09322 0.112189,0.02095 0.313947,0.08153 0.448333,0.134625 0.285396,0.112757 0.876537,0.302208 1.091196,0.34971 0.08219,0.01819 0.301367,0.09365 0.487051,0.167682 0.51499,0.205338 0.730783,0.188823 1.043058,-0.07983 0.144776,-0.124549 0.270702,-0.249763 0.279833,-0.27825 0.0092,-0.02849 0.06036,-0.0518 0.113834,-0.0518 0.05347,0 0.153183,-0.04963 0.22157,-0.110289 0.06839,-0.06066 0.138389,-0.09127 0.155563,-0.06802 0.01717,0.02325 0.05744,0.01281 0.08949,-0.0232 0.07208,-0.08099 0.889471,-0.112775 1.106128,-0.04303 0.216544,0.06972 0.49706,0.716578 0.310748,0.716578 -0.02936,0 -0.04676,0.06836 -0.03868,0.151928 0.0169,0.174611 -0.09789,0.589869 -0.163065,0.589869 -0.02408,0 -0.04377,0.05897 -0.04377,0.131048 0,0.07207 -0.04982,0.178289 -0.110711,0.236026 -0.06089,0.05774 -0.09162,0.104975 -0.06827,0.104975 0.02335,0 -0.04452,0.123704 -0.150814,0.274897 -0.207389,0.295001 -0.7245,0.80408 -0.816768,0.80408 -0.128641,0 -0.201371,0.196698 -0.23688,0.640643 -0.01185,0.148358 -0.0417,0.298573 -0.06628,0.333808 -0.02458,0.03524 -0.04471,0.137926 -0.04471,0.228202 0,0.09027 -0.02079,0.273871 -0.0462,0.407988 -0.06233,0.3290173 -0.207766,1.2153063 -0.233662,1.4239813 -0.02885,0.232528 -0.118639,0.794764 -0.172293,1.078977 -0.02451,0.129815 -0.05461,0.327065 -0.0669,0.438335 -0.01223,0.111269 -0.04759,0.30852 -0.07843,0.438334 -0.03085,0.129814 -0.06616,0.357411 -0.07847,0.505771 -0.01236,0.148359 -0.04303,0.391128 -0.06827,0.539488 -0.04592,0.269814 -0.216114,1.296859 -0.304687,1.8386 -0.02586,0.158164 -0.04701,0.347828 -0.04701,0.421475 0,0.07365 -0.02091,0.133905 -0.04645,0.133905 -0.02555,0 -0.06069,0.06069 -0.07807,0.134872 -0.0174,0.07418 -0.06188,0.134873 -0.09883,0.134873 -0.03697,0 -0.07468,0.02963 -0.08382,0.06585 -0.0282,0.111845 -0.368569,0.135962 -0.476363,0.03375 z m -5.144424,-4.82013 c 0,-0.03709 -0.02374,-0.06744 -0.05275,-0.06744 -0.02902,0 -0.0389,0.03035 -0.02197,0.06744 0.01694,0.03709 0.04067,0.06744 0.05276,0.06744 0.01211,0 0.02197,-0.03035 0.02197,-0.06744 z m 7.941435,-4.7968293 c -0.01198,-0.02623 0.0065,-0.08808 0.04104,-0.137426 0.401743,-0.573902 0.448261,-1.336699 0.100337,-1.645308 -0.188219,-0.166951 -0.617001,-0.202187 -0.859827,-0.07066 -0.113107,0.06127 -0.226583,0.09387 -0.252175,0.07246 -0.02559,-0.02142 -0.04653,0.0067 -0.04653,0.06246 0,0.05577 0.112763,0.232047 0.250587,0.391737 0.30097,0.348724 0.426393,0.616682 0.465414,0.994334 0.0376,0.363863 0.06128,0.40941 0.204453,0.393368 0.06516,-0.0074 0.108672,-0.03474 0.09671,-0.06097 z"
   id="path77" /></svg>
